<mxfile host="app.diagrams.net" modified="2023-09-12T07:40:17.337Z" agent="Mozilla/5.0 (Macintosh; Intel Mac OS X 10_15_7) AppleWebKit/537.36 (KHTML, like Gecko) Chrome/116.0.0.0 Safari/537.36" etag="5kYbiZUZTrIoTrelb8wy" version="21.7.4" type="device">
  <diagram name="Page-1" id="YWHrkoygLL7jxxsK0lY7">
    <mxGraphModel dx="828" dy="548" grid="1" gridSize="10" guides="1" tooltips="1" connect="1" arrows="1" fold="1" page="1" pageScale="1" pageWidth="850" pageHeight="1100" math="0" shadow="0">
      <root>
        <mxCell id="0" />
        <mxCell id="1" parent="0" />
        <mxCell id="mfRn7K8eQrv3ZPi9d9LI-17" value="Person" style="rounded=0;whiteSpace=wrap;html=1;" vertex="1" parent="1">
          <mxGeometry x="160" y="160" width="120" height="60" as="geometry" />
        </mxCell>
        <mxCell id="mfRn7K8eQrv3ZPi9d9LI-18" value="ArbTaker" style="rounded=0;whiteSpace=wrap;html=1;" vertex="1" parent="1">
          <mxGeometry x="560" y="160" width="120" height="60" as="geometry" />
        </mxCell>
        <mxCell id="mfRn7K8eQrv3ZPi9d9LI-19" value="" style="endArrow=none;dashed=1;html=1;rounded=0;entryX=0.5;entryY=1;entryDx=0;entryDy=0;" edge="1" parent="1" target="mfRn7K8eQrv3ZPi9d9LI-17">
          <mxGeometry width="50" height="50" relative="1" as="geometry">
            <mxPoint x="220" y="440" as="sourcePoint" />
            <mxPoint x="420" y="230" as="targetPoint" />
          </mxGeometry>
        </mxCell>
        <mxCell id="mfRn7K8eQrv3ZPi9d9LI-20" value="" style="endArrow=none;dashed=1;html=1;rounded=0;entryX=0.5;entryY=1;entryDx=0;entryDy=0;" edge="1" parent="1">
          <mxGeometry width="50" height="50" relative="1" as="geometry">
            <mxPoint x="620" y="440" as="sourcePoint" />
            <mxPoint x="619.71" y="220" as="targetPoint" />
          </mxGeometry>
        </mxCell>
        <mxCell id="mfRn7K8eQrv3ZPi9d9LI-21" value="" style="endArrow=classic;html=1;rounded=0;" edge="1" parent="1">
          <mxGeometry width="50" height="50" relative="1" as="geometry">
            <mxPoint x="220" y="280" as="sourcePoint" />
            <mxPoint x="220" y="280" as="targetPoint" />
            <Array as="points">
              <mxPoint x="620" y="280" />
            </Array>
          </mxGeometry>
        </mxCell>
        <mxCell id="mfRn7K8eQrv3ZPi9d9LI-22" value="" style="endArrow=classic;html=1;rounded=0;" edge="1" parent="1">
          <mxGeometry width="50" height="50" relative="1" as="geometry">
            <mxPoint x="220" y="320" as="sourcePoint" />
            <mxPoint x="220" y="320" as="targetPoint" />
            <Array as="points">
              <mxPoint x="620" y="320" />
            </Array>
          </mxGeometry>
        </mxCell>
        <mxCell id="mfRn7K8eQrv3ZPi9d9LI-23" value="" style="endArrow=classic;html=1;rounded=0;" edge="1" parent="1">
          <mxGeometry width="50" height="50" relative="1" as="geometry">
            <mxPoint x="220" y="360" as="sourcePoint" />
            <mxPoint x="220" y="360" as="targetPoint" />
            <Array as="points">
              <mxPoint x="620" y="360" />
            </Array>
          </mxGeometry>
        </mxCell>
        <mxCell id="mfRn7K8eQrv3ZPi9d9LI-25" value="getEtternavn()" style="text;html=1;align=center;verticalAlign=middle;resizable=0;points=[];autosize=1;strokeColor=none;fillColor=none;" vertex="1" parent="1">
          <mxGeometry x="375" y="248" width="100" height="30" as="geometry" />
        </mxCell>
        <mxCell id="mfRn7K8eQrv3ZPi9d9LI-26" value="getFornavn()" style="text;html=1;align=center;verticalAlign=middle;resizable=0;points=[];autosize=1;strokeColor=none;fillColor=none;" vertex="1" parent="1">
          <mxGeometry x="380" y="288" width="90" height="30" as="geometry" />
        </mxCell>
        <mxCell id="mfRn7K8eQrv3ZPi9d9LI-27" value="alder()" style="text;html=1;align=center;verticalAlign=middle;resizable=0;points=[];autosize=1;strokeColor=none;fillColor=none;" vertex="1" parent="1">
          <mxGeometry x="395" y="330" width="60" height="30" as="geometry" />
        </mxCell>
      </root>
    </mxGraphModel>
  </diagram>
</mxfile>
